<svg width="1880" height="538" viewBox="0 0 1880 538" fill="none" xmlns="http://www.w3.org/2000/svg">
<path d="M877.323 113.736L841.147 215.807L858.506 304.024L834.106 235.856L790.283 113.736H663.062L772.924 378.511L703.729 530.766H831.679L1005.76 113.736H877.323Z" fill="white"/>
<path d="M291.467 186.65C278.963 162.226 261.968 142.784 240.845 128.81C219.237 114.593 195.565 107.303 170.437 107.303C150.771 107.303 132.562 111.313 116.295 119.211C113.625 120.548 110.954 121.884 108.526 123.464V110.584H0V537.334H108.526V411.569C111.197 413.27 113.989 414.85 116.781 416.43C133.655 425.422 151.621 430.039 170.437 430.039C195.565 430.039 219.237 422.87 240.845 408.531C261.968 394.557 278.963 375.115 291.467 350.692C303.727 326.511 309.918 298.927 309.918 268.671C309.918 238.414 303.727 210.831 291.467 186.65ZM201.514 268.671C201.514 283.981 196.779 296.497 187.189 307.069C177.963 317.276 167.523 322.015 154.17 322.015C140.817 322.015 131.105 317.397 122.244 307.312C113.018 296.862 108.526 284.224 108.526 268.671C108.526 253.117 113.018 240.602 122.365 230.03C131.105 219.944 141.302 215.327 154.17 215.327C167.038 215.327 177.963 220.066 187.189 230.273C196.779 240.845 201.514 253.36 201.514 268.671Z" fill="white"/>
<path d="M1771.72 0V125.279C1768.32 123.213 1764.68 121.269 1761.03 119.446C1744.52 111.427 1726.68 107.295 1708.11 107.295C1682.74 107.295 1659.06 114.829 1637.58 129.775C1616.7 144.356 1599.94 164.163 1588.05 188.708C1576.27 213.011 1570.2 239.865 1570.2 268.542C1570.2 297.219 1576.15 324.194 1588.05 348.375C1600.07 373.042 1616.7 392.849 1637.58 407.43C1658.94 422.376 1682.74 429.91 1708.11 429.91C1726.8 429.91 1746.59 429.059 1760.79 417.759C1774.14 407.187 1787.01 383.735 1792.48 374.379L1771.6 426.994L1880 426.751V0H1771.6H1771.72ZM1771.72 268.663C1771.72 284.095 1767.1 296.611 1757.64 307.183C1748.65 317.268 1738.33 322.007 1725.47 322.007C1716.97 322.007 1709.32 319.82 1702.04 315.324C1694.63 310.707 1689.05 304.509 1684.68 296.368C1680.31 287.862 1678.12 278.87 1678.12 268.785C1678.12 258.699 1680.31 249.829 1684.68 241.566C1688.93 233.546 1694.63 227.349 1702.04 222.732C1709.32 218.236 1716.97 216.049 1725.47 216.049C1738.45 216.049 1748.65 220.666 1757.76 230.63C1767.1 240.959 1771.72 253.474 1771.72 268.785V268.663Z" fill="white"/>
<path d="M1441.45 274.019V426.881H1331.71V110.949H1441.45V143.514" fill="white"/>
<path d="M1482.48 110.949L1403.69 248.865H1515.86L1594.64 110.949H1482.48Z" fill="white"/>
<path d="M1185.44 110.58V125.283C1182.04 123.217 1178.39 121.273 1174.75 119.45C1158.24 111.43 1140.4 107.299 1121.83 107.299C1096.45 107.299 1072.78 114.833 1051.3 129.779C1030.42 144.36 1013.66 164.167 1001.77 188.712C989.992 213.014 983.922 239.869 983.922 268.545C983.922 297.222 989.87 324.198 1001.77 348.379C1013.78 373.046 1030.42 392.852 1051.3 407.434C1072.66 422.38 1096.45 429.914 1121.83 429.914C1140.52 429.914 1160.31 429.063 1174.51 417.762C1187.86 407.191 1200.73 383.739 1206.19 374.383L1185.31 426.997L1293.72 426.754V110.58H1185.31H1185.44ZM1185.44 268.667C1185.44 284.099 1180.82 296.615 1171.35 307.186C1162.37 317.272 1152.05 322.011 1139.18 322.011C1130.69 322.011 1123.04 319.824 1115.76 315.328C1108.35 310.71 1102.77 304.513 1098.4 296.372C1094.03 287.866 1091.84 278.874 1091.84 268.788C1091.84 258.703 1094.03 249.833 1098.4 241.57C1102.65 233.55 1108.35 227.353 1115.76 222.735C1123.04 218.239 1130.69 216.052 1139.18 216.052C1152.17 216.052 1162.37 220.67 1171.48 230.634C1180.82 240.962 1185.44 253.478 1185.44 268.788V268.667Z" fill="white"/>
<path d="M529.871 110.58V125.283C526.472 123.217 522.83 121.273 519.189 119.45C502.679 111.43 484.834 107.299 466.261 107.299C440.89 107.299 417.218 114.833 395.731 129.779C374.851 144.36 358.099 164.167 346.202 188.712C334.427 213.014 328.357 239.869 328.357 268.545C328.357 297.222 334.306 324.198 346.202 348.379C358.22 373.046 374.851 392.852 395.731 407.434C417.096 422.38 440.89 429.914 466.261 429.914C484.955 429.914 504.743 429.063 518.946 417.762C532.299 407.191 545.167 383.739 550.629 374.383L529.75 426.997L638.155 426.754V110.58H529.75H529.871ZM529.871 268.667C529.871 284.099 525.258 296.615 515.79 307.186C506.806 317.272 496.488 322.011 483.62 322.011C475.123 322.011 467.475 319.824 460.191 315.328C452.786 310.71 447.202 304.513 442.832 296.372C438.462 287.866 436.277 278.874 436.277 268.788C436.277 258.703 438.462 249.833 442.832 241.57C447.081 233.55 452.786 227.353 460.191 222.735C467.475 218.239 475.123 216.052 483.62 216.052C496.609 216.052 506.806 220.67 515.911 230.634C525.258 240.962 529.871 253.478 529.871 268.788V268.667Z" fill="white"/>
</svg>
