<svg width="210" height="47" viewBox="0 0 210 47" fill="none" xmlns="http://www.w3.org/2000/svg">
<path d="M53.3121 39.3149H26.7053L31.1875 30.2118L22.8938 43.6274L22.5176 44.32H5.1123L30.7458 2.60547H48.1592L61.982 25.1985L53.3121 39.3067V39.3149Z" fill="white"/>
<path d="M44.2818 24.7704L39.4234 16.9453L34.5649 24.7704H43.2594L50.2853 34.3518L44.2818 24.7704Z" fill="black"/>
<path d="M64.4109 23.5989L50.6699 1.43474L49.7702 0H29.1996L28.3081 1.43474L2.87907 42.3082L0 47H24.3412L25.2327 45.5653L27.4084 42.0444L53.2218 42.1104H54.8822L55.7737 40.6756L64.4027 26.79L65.4251 25.1574L64.4027 23.5907L64.4109 23.5989ZM53.23 39.1172L26.8358 39.0512L31.1953 30.2202L23.0652 43.2895L22.6154 44.0068H5.43096L30.86 3.12509H48.0526L61.7936 25.2893L53.23 39.1089V39.1172Z" fill="black"/>
<path d="M139.889 11.627L137.451 18.5533L138.621 24.5396L136.977 19.9138L134.024 11.627H125.453L132.855 29.5941L128.193 39.9259H136.813L148.542 11.627H139.889Z" fill="white"/>
<path d="M100.416 16.5738C99.5731 14.9165 98.428 13.5972 97.0048 12.6489C95.5489 11.6842 93.954 11.1895 92.2609 11.1895C90.9359 11.1895 89.709 11.4616 88.613 11.9975C88.433 12.0882 88.2531 12.1789 88.0895 12.2861V11.4121H80.7773V40.3707H88.0895V31.8365C88.2695 31.9519 88.4576 32.0591 88.6457 32.1663C89.7826 32.7765 90.9931 33.0898 92.2609 33.0898C93.954 33.0898 95.5489 32.6033 97.0048 31.6303C98.428 30.6821 99.5731 29.3628 100.416 27.7054C101.242 26.0645 101.659 24.1928 101.659 22.1396C101.659 20.0865 101.242 18.2147 100.416 16.5738ZM94.3548 22.1396C94.3548 23.1786 94.0358 24.0279 93.3896 24.7452C92.768 25.4379 92.0646 25.7595 91.1649 25.7595C90.2652 25.7595 89.6108 25.4461 89.0138 24.7617C88.3921 24.0526 88.0895 23.1951 88.0895 22.1396C88.0895 21.0842 88.3921 20.2349 89.0219 19.5175C89.6108 18.8331 90.2979 18.5198 91.1649 18.5198C92.0319 18.5198 92.768 18.8414 93.3896 19.534C94.0358 20.2514 94.3548 21.1007 94.3548 22.1396Z" fill="white"/>
<path d="M200.152 3.9082V12.4094C199.923 12.2693 199.677 12.1373 199.432 12.0136C198.319 11.4694 197.117 11.1891 195.866 11.1891C194.156 11.1891 192.561 11.7003 191.114 12.7145C189.707 13.704 188.578 15.048 187.777 16.7136C186.983 18.3628 186.574 20.185 186.574 22.131C186.574 24.077 186.975 25.9075 187.777 27.5484C188.586 29.2222 189.707 30.5663 191.114 31.5557C192.553 32.57 194.156 33.0812 195.866 33.0812C197.125 33.0812 198.459 33.0235 199.416 32.2566C200.315 31.5393 201.182 29.9479 201.55 29.3129L200.143 32.8833L207.447 32.8668V3.9082H200.143H200.152ZM200.152 22.1393C200.152 23.1864 199.841 24.0357 199.203 24.7531C198.598 25.4375 197.902 25.7591 197.035 25.7591C196.463 25.7591 195.948 25.6107 195.457 25.3056C194.958 24.9922 194.582 24.5717 194.287 24.0193C193.993 23.4421 193.845 22.8319 193.845 22.1475C193.845 21.4631 193.993 20.8612 194.287 20.3005C194.573 19.7563 194.958 19.3357 195.457 19.0224C195.948 18.7173 196.463 18.5689 197.035 18.5689C197.911 18.5689 198.598 18.8822 199.211 19.5584C199.841 20.2593 200.152 21.1086 200.152 22.1475V22.1393Z" fill="white"/>
<path d="M177.897 22.5031V32.8761H170.503V11.4375H177.897V13.6473" fill="white"/>
<path d="M180.662 11.4375L175.354 20.7963H182.911L188.219 11.4375H180.662Z" fill="white"/>
<path d="M160.647 11.4121V12.4098C160.418 12.2696 160.172 12.1377 159.927 12.014C158.815 11.4698 157.612 11.1895 156.361 11.1895C154.651 11.1895 153.056 11.7007 151.609 12.7149C150.202 13.7044 149.073 15.0484 148.272 16.714C147.478 18.3631 147.069 20.1854 147.069 22.1314C147.069 24.0773 147.47 25.9079 148.272 27.5488C149.081 29.2226 150.202 30.5666 151.609 31.5561C153.048 32.5703 154.651 33.0816 156.361 33.0816C157.62 33.0816 158.954 33.0238 159.911 32.257C160.81 31.5396 161.677 29.9482 162.045 29.3133L160.639 32.8837L167.943 32.8672V11.4121H160.639H160.647ZM160.647 22.1396C160.647 23.1868 160.336 24.0361 159.698 24.7535C159.093 25.4379 158.397 25.7595 157.53 25.7595C156.958 25.7595 156.443 25.611 155.952 25.3059C155.453 24.9926 155.077 24.5721 154.782 24.0196C154.488 23.4424 154.341 22.8323 154.341 22.1479C154.341 21.4635 154.488 20.8616 154.782 20.3009C155.069 19.7566 155.453 19.3361 155.952 19.0228C156.443 18.7177 156.958 18.5693 157.53 18.5693C158.406 18.5693 159.093 18.8826 159.706 19.5588C160.336 20.2596 160.647 21.1089 160.647 22.1479V22.1396Z" fill="white"/>
<path d="M116.48 11.4121V12.4098C116.251 12.2696 116.005 12.1377 115.76 12.014C114.648 11.4698 113.445 11.1895 112.194 11.1895C110.484 11.1895 108.889 11.7007 107.442 12.7149C106.035 13.7044 104.906 15.0484 104.105 16.714C103.311 18.3631 102.902 20.1854 102.902 22.1314C102.902 24.0773 103.303 25.9079 104.105 27.5488C104.914 29.2226 106.035 30.5666 107.442 31.5561C108.881 32.5703 110.484 33.0816 112.194 33.0816C113.453 33.0816 114.787 33.0238 115.744 32.257C116.643 31.5396 117.51 29.9482 117.878 29.3133L116.472 32.8837L123.776 32.8672V11.4121H116.472H116.48ZM116.48 22.1396C116.48 23.1868 116.169 24.0361 115.531 24.7535C114.926 25.4379 114.23 25.7595 113.363 25.7595C112.791 25.7595 112.276 25.611 111.785 25.3059C111.286 24.9926 110.91 24.5721 110.615 24.0196C110.321 23.4424 110.174 22.8323 110.174 22.1479C110.174 21.4635 110.321 20.8616 110.615 20.3009C110.902 19.7566 111.286 19.3361 111.785 19.0228C112.276 18.7177 112.791 18.5693 113.363 18.5693C114.239 18.5693 114.926 18.8826 115.539 19.5588C116.169 20.2596 116.48 21.1089 116.48 22.1479V22.1396Z" fill="white"/>
</svg>
