<svg width="211" height="48" viewBox="0 0 211 48" fill="none" xmlns="http://www.w3.org/2000/svg">
<g clip-path="url(#clip0_1779_2462)">
<path d="M53.9186 39.7705H27.3117L31.7939 30.6674L23.5003 44.083L23.124 44.7756H5.71875L31.3522 3.06104H48.7657L62.5885 25.654L53.9186 39.7623V39.7705Z" fill="white"/>
<path d="M44.8887 25.225L40.0303 17.3999L35.1719 25.225H43.8663L50.8922 34.8064L44.8887 25.225Z" fill="black"/>
<path d="M65.0203 24.054L51.2793 1.88981L50.3796 0.455078H29.809L28.9175 1.88981L3.48844 42.7633L0.609375 47.4551H24.9506L25.8421 46.0203L28.0177 42.4995L53.8312 42.5654H55.4916L56.3831 41.1307L65.0121 27.2451L66.0345 25.6124L65.0121 24.0458L65.0203 24.054ZM53.8394 39.5723L27.4452 39.5063L31.8047 30.6753L23.6746 43.7446L23.2248 44.4619H6.04034L31.4694 3.58017H48.662L62.403 25.7444L53.8394 39.564V39.5723Z" fill="black"/>
<path d="M140.491 12.0811L138.054 19.0074L139.223 24.9937L137.579 20.3679L134.626 12.0811H126.055L133.457 30.0482L128.795 40.38H137.416L149.144 12.0811H140.491Z" fill="black"/>
<path d="M101.021 17.0284C100.179 15.3711 99.0334 14.0518 97.6103 13.1035C96.1544 12.1388 94.5594 11.644 92.8664 11.644C91.5413 11.644 90.3145 11.9161 89.2184 12.4521C89.0385 12.5428 88.8586 12.6335 88.695 12.7407V11.8667H81.3828V40.8253H88.695V32.2911C88.8749 32.4065 89.063 32.5137 89.2512 32.6209C90.3881 33.2311 91.5986 33.5444 92.8664 33.5444C94.5594 33.5444 96.1544 33.0579 97.6103 32.0849C99.0334 31.1367 100.179 29.8174 101.021 28.16C101.847 26.5191 102.264 24.6474 102.264 22.5942C102.264 20.5411 101.847 18.6693 101.021 17.0284ZM94.9602 22.5942C94.9602 23.6332 94.6412 24.4825 93.9951 25.1998C93.3735 25.8925 92.6701 26.214 91.7703 26.214C90.8706 26.214 90.2163 25.9007 89.6192 25.2163C88.9976 24.5072 88.695 23.6497 88.695 22.5942C88.695 21.5388 88.9976 20.6895 89.6274 19.9721C90.2163 19.2877 90.9034 18.9744 91.7703 18.9744C92.6373 18.9744 93.3735 19.296 93.9951 19.9886C94.6412 20.706 94.9602 21.5553 94.9602 22.5942Z" fill="black"/>
<path d="M200.757 4.36328V12.8645C200.528 12.7243 200.283 12.5924 200.037 12.4687C198.925 11.9245 197.723 11.6442 196.471 11.6442C194.762 11.6442 193.167 12.1554 191.719 13.1696C190.312 14.1591 189.184 15.5031 188.382 17.1687C187.589 18.8178 187.18 20.6401 187.18 22.5861C187.18 24.5321 187.58 26.3626 188.382 28.0035C189.192 29.6773 190.312 31.0213 191.719 32.0108C193.159 33.025 194.762 33.5363 196.471 33.5363C197.731 33.5363 199.064 33.4785 200.021 32.7117C200.921 31.9943 201.788 30.4029 202.156 29.768L200.749 33.3384L208.053 33.3219V4.36328H200.749H200.757ZM200.757 22.5943C200.757 23.6415 200.446 24.4908 199.808 25.2082C199.203 25.8926 198.508 26.2142 197.641 26.2142C197.068 26.2142 196.553 26.0657 196.062 25.7606C195.563 25.4473 195.187 25.0268 194.893 24.4743C194.598 23.8971 194.451 23.287 194.451 22.6026C194.451 21.9182 194.598 21.3163 194.893 20.7556C195.179 20.2114 195.563 19.7908 196.062 19.4775C196.553 19.1724 197.068 19.024 197.641 19.024C198.516 19.024 199.203 19.3373 199.816 20.0135C200.446 20.7143 200.757 21.5636 200.757 22.6026V22.5943Z" fill="black"/>
<path d="M178.503 22.9572V33.3302H171.109V11.8916H178.503V14.1014" fill="black"/>
<path d="M181.269 11.8916L175.961 21.2504H183.518L188.827 11.8916H181.269Z" fill="black"/>
<path d="M161.249 11.8667V12.8644C161.02 12.7242 160.775 12.5923 160.53 12.4686C159.417 11.9244 158.215 11.644 156.963 11.644C155.254 11.644 153.659 12.1553 152.211 13.1695C150.804 14.159 149.676 15.503 148.874 17.1686C148.081 18.8177 147.672 20.64 147.672 22.586C147.672 24.5319 148.073 26.3625 148.874 28.0033C149.684 29.6772 150.804 31.0212 152.211 32.0107C153.651 33.0249 155.254 33.5361 156.963 33.5361C158.223 33.5361 159.556 33.4784 160.513 32.7116C161.413 31.9942 162.28 30.4028 162.648 29.7679L161.241 33.3383L168.545 33.3218V11.8667H161.241H161.249ZM161.249 22.5942C161.249 23.6414 160.938 24.4907 160.301 25.2081C159.695 25.8925 159 26.214 158.133 26.214C157.56 26.214 157.045 26.0656 156.554 25.7605C156.056 25.4472 155.679 25.0267 155.385 24.4742C155.09 23.897 154.943 23.2868 154.943 22.6025C154.943 21.9181 155.09 21.3161 155.385 20.7554C155.671 20.2112 156.056 19.7907 156.554 19.4774C157.045 19.1723 157.56 19.0239 158.133 19.0239C159.008 19.0239 159.695 19.3372 160.309 20.0133C160.938 20.7142 161.249 21.5635 161.249 22.6025V22.5942Z" fill="black"/>
<path d="M117.085 11.8667V12.8644C116.856 12.7242 116.611 12.5923 116.365 12.4686C115.253 11.9244 114.051 11.644 112.799 11.644C111.09 11.644 109.495 12.1553 108.047 13.1695C106.64 14.159 105.512 15.503 104.71 17.1686C103.917 18.8177 103.508 20.64 103.508 22.586C103.508 24.5319 103.909 26.3625 104.71 28.0033C105.52 29.6772 106.64 31.0212 108.047 32.0107C109.487 33.0249 111.09 33.5361 112.799 33.5361C114.059 33.5361 115.392 33.4784 116.349 32.7116C117.249 31.9942 118.116 30.4028 118.484 29.7679L117.077 33.3383L124.381 33.3218V11.8667H117.077H117.085ZM117.085 22.5942C117.085 23.6414 116.774 24.4907 116.136 25.2081C115.531 25.8925 114.836 26.214 113.969 26.214C113.396 26.214 112.881 26.0656 112.39 25.7605C111.891 25.4472 111.515 25.0267 111.221 24.4742C110.926 23.897 110.779 23.2868 110.779 22.6025C110.779 21.9181 110.926 21.3161 111.221 20.7554C111.507 20.2112 111.891 19.7907 112.39 19.4774C112.881 19.1723 113.396 19.0239 113.969 19.0239C114.844 19.0239 115.531 19.3372 116.145 20.0133C116.774 20.7142 117.085 21.5635 117.085 22.6025V22.5942Z" fill="black"/>
</g>
<defs>
<clipPath id="clip0_1779_2462">
<rect width="210" height="47" fill="white" transform="translate(0.609375 0.455078)"/>
</clipPath>
</defs>
</svg>
