<svg width="181" height="52" viewBox="0 0 181 52" fill="none" xmlns="http://www.w3.org/2000/svg">
<path d="M180.316 46.7875C180.316 49.6673 177.995 52 175.124 52H5.19921C2.32942 52 0 49.6673 0 46.7875V5.21933C0 2.34087 2.32942 0 5.19921 0H175.122C177.995 0 180.315 2.34087 180.315 5.21933L180.316 46.7875Z" fill="black"/>
<path d="M39.5957 25.714C39.5564 21.3276 43.1697 19.1936 43.335 19.0943C41.2886 16.096 38.1168 15.6864 37.0022 15.6537C34.3383 15.372 31.7542 17.2556 30.3972 17.2556C29.0131 17.2556 26.9234 15.6809 24.6712 15.7272C21.7729 15.7721 19.0616 17.4584 17.5746 20.0769C14.5057 25.416 16.7945 33.262 19.7347 37.5776C21.2055 39.6912 22.9241 42.0511 25.1736 41.9681C27.3744 41.8769 28.1964 40.5581 30.8523 40.5581C33.4837 40.5581 34.2556 41.9681 36.5499 41.915C38.9118 41.8769 40.3988 39.7919 41.8181 37.6593C43.5178 35.2367 44.2004 32.851 44.2275 32.7285C44.1719 32.7094 39.6404 30.9715 39.5957 25.714Z" fill="white"/>
<path d="M35.2616 12.8131C36.4452 11.3255 37.2551 9.30175 37.0303 7.24805C35.3171 7.32426 33.1746 8.4389 31.9408 9.89378C30.8492 11.1758 29.8741 13.2772 30.126 15.2533C32.0505 15.3975 34.0264 14.2775 35.2616 12.8131Z" fill="white"/>
<path d="M71.4462 41.6626H68.3705L66.6858 36.3426H60.8297L59.2249 41.6626H56.2305L62.0324 23.5508H65.6159L71.4462 41.6626ZM66.1779 34.1106L64.6543 29.3812C64.4931 28.898 64.1911 27.7603 63.7456 25.9692H63.6914C63.514 26.7395 63.2282 27.8773 62.8355 29.3812L61.3389 34.1106H66.1779Z" fill="white"/>
<path d="M86.3668 34.9753C86.3668 37.1965 85.7695 38.9521 84.575 40.2409C83.5051 41.3882 82.1765 41.9612 80.5906 41.9612C78.8788 41.9612 77.6491 41.3433 76.9001 40.1076H76.8459V46.9873H73.9586V32.9053C73.9586 31.509 73.922 30.0759 73.8516 28.606H76.3909L76.5521 30.676H76.6062C77.5692 29.1164 79.0305 28.3379 80.9915 28.3379C82.5246 28.3379 83.8044 28.9462 84.8283 30.1643C85.8548 31.3837 86.3668 32.987 86.3668 34.9753ZM83.4252 35.0815C83.4252 33.8104 83.1408 32.7624 82.5693 31.9377C81.9449 31.0775 81.1066 30.6475 80.0557 30.6475C79.3433 30.6475 78.6959 30.887 78.1176 31.3592C77.538 31.8356 77.1588 32.4576 76.9814 33.2279C76.892 33.5872 76.8473 33.8811 76.8473 34.1125V36.29C76.8473 37.24 77.1371 38.0416 77.7168 38.6962C78.2964 39.3509 79.0494 39.6775 79.9758 39.6775C81.0633 39.6775 81.9097 39.2556 82.5151 38.4145C83.1218 37.5721 83.4252 36.4615 83.4252 35.0815Z" fill="white"/>
<path d="M101.315 34.9753C101.315 37.1965 100.717 38.9521 99.5215 40.2409C98.453 41.3882 97.1244 41.9612 95.5385 41.9612C93.8266 41.9612 92.5969 41.3433 91.8493 40.1076H91.7952V46.9873H88.9078V32.9053C88.9078 31.509 88.8712 30.0759 88.8008 28.606H91.3401L91.5013 30.676H91.5555C92.517 29.1164 93.9783 28.3379 95.9407 28.3379C97.4725 28.3379 98.7523 28.9462 99.7789 30.1643C100.801 31.3837 101.315 32.987 101.315 34.9753ZM98.3731 35.0815C98.3731 33.8104 98.0873 32.7624 97.5158 31.9377C96.8914 31.0775 96.0558 30.6475 95.0035 30.6475C94.2898 30.6475 93.6438 30.887 93.0642 31.3592C92.4845 31.8356 92.1067 32.4576 91.9292 33.2279C91.8412 33.5872 91.7952 33.8811 91.7952 34.1125V36.29C91.7952 37.24 92.085 38.0416 92.6619 38.6962C93.2416 39.3495 93.9946 39.6775 94.9236 39.6775C96.0112 39.6775 96.8576 39.2556 97.463 38.4145C98.0697 37.5721 98.3731 36.4615 98.3731 35.0815Z" fill="white"/>
<path d="M118.025 36.5852C118.025 38.1258 117.493 39.3792 116.424 40.3469C115.25 41.4044 113.615 41.9324 111.515 41.9324C109.575 41.9324 108.021 41.5568 106.844 40.8042L107.513 38.3857C108.78 39.156 110.171 39.5426 111.687 39.5426C112.774 39.5426 113.621 39.2949 114.229 38.8022C114.834 38.3095 115.136 37.6481 115.136 36.8233C115.136 36.0884 114.887 35.4692 114.387 34.967C113.89 34.4648 113.06 33.998 111.901 33.5665C108.745 32.3838 107.169 30.6513 107.169 28.3731C107.169 26.8842 107.721 25.6634 108.828 24.7134C109.93 23.7621 111.401 23.2871 113.24 23.2871C114.88 23.2871 116.243 23.5743 117.33 24.1472L116.608 26.5126C115.593 25.9573 114.444 25.6797 113.159 25.6797C112.143 25.6797 111.35 25.9315 110.781 26.4323C110.3 26.8801 110.059 27.4258 110.059 28.0723C110.059 28.7882 110.334 29.3802 110.886 29.8456C111.367 30.2757 112.241 30.7412 113.508 31.2433C115.059 31.8708 116.198 32.6043 116.931 33.4454C117.661 34.2838 118.025 35.3331 118.025 36.5852Z" fill="white"/>
<path d="M127.571 30.7812H124.388V37.122C124.388 38.7348 124.949 39.5405 126.073 39.5405C126.589 39.5405 127.017 39.4955 127.356 39.4057L127.435 41.6091C126.867 41.8228 126.118 41.9303 125.19 41.9303C124.05 41.9303 123.159 41.5806 122.515 40.8824C121.875 40.1828 121.552 39.0097 121.552 37.3615V30.7785H119.656V28.601H121.552V26.2097L124.388 25.3496V28.601H127.571V30.7812Z" fill="white"/>
<path d="M141.932 35.0271C141.932 37.0345 141.361 38.6826 140.22 39.9715C139.025 41.2984 137.437 41.9599 135.459 41.9599C133.552 41.9599 132.034 41.3243 130.901 40.0531C129.769 38.782 129.203 37.1774 129.203 35.2435C129.203 33.2197 129.785 31.562 130.954 30.2732C132.12 28.983 133.694 28.3379 135.673 28.3379C137.58 28.3379 139.114 28.9735 140.272 30.246C141.38 31.4804 141.932 33.0741 141.932 35.0271ZM138.937 35.121C138.937 33.9165 138.681 32.8835 138.162 32.022C137.557 30.9795 136.691 30.4596 135.57 30.4596C134.409 30.4596 133.527 30.9809 132.922 32.022C132.403 32.8849 132.147 33.9342 132.147 35.1754C132.147 36.3799 132.403 37.4128 132.922 38.273C133.546 39.3155 134.419 39.8354 135.544 39.8354C136.646 39.8354 137.512 39.3046 138.136 38.2458C138.668 37.3679 138.937 36.3241 138.937 35.121Z" fill="white"/>
<path d="M151.32 31.1578C151.034 31.1047 150.73 31.0775 150.41 31.0775C149.394 31.0775 148.609 31.4627 148.056 32.2344C147.576 32.9148 147.334 33.775 147.334 34.8134V41.6659H144.448L144.476 32.7189C144.476 31.2136 144.439 29.8431 144.367 28.6074H146.882L146.988 31.1061H147.068C147.372 30.2473 147.853 29.556 148.511 29.0374C149.155 28.5706 149.849 28.3379 150.598 28.3379C150.865 28.3379 151.106 28.3569 151.32 28.391V31.1578Z" fill="white"/>
<path d="M164.229 34.5152C164.229 35.0351 164.195 35.4733 164.124 35.8313H155.461C155.495 37.1215 155.914 38.1082 156.718 38.7887C157.448 39.397 158.392 39.7019 159.551 39.7019C160.834 39.7019 162.004 39.4964 163.056 39.084L163.509 41.0982C162.279 41.6372 160.827 41.9053 159.152 41.9053C157.137 41.9053 155.555 41.3092 154.404 40.1183C153.255 38.9275 152.68 37.3283 152.68 35.3223C152.68 33.3529 153.215 31.713 154.286 30.4051C155.407 29.0087 156.923 28.3105 158.83 28.3105C160.703 28.3105 162.121 29.0087 163.084 30.4051C163.846 31.5143 164.229 32.8861 164.229 34.5152ZM161.476 33.7626C161.495 32.9025 161.307 32.1594 160.915 31.532C160.416 30.7249 159.648 30.3221 158.614 30.3221C157.67 30.3221 156.902 30.7154 156.316 31.5047C155.835 32.1322 155.549 32.8848 155.461 33.7612L161.476 33.7626Z" fill="white"/>
<path d="M65.2234 12.4102C65.2234 14.0121 64.7453 15.2179 63.7905 16.0277C62.9062 16.7749 61.6494 17.1491 60.0215 17.1491C59.2143 17.1491 58.5236 17.1137 57.9453 17.043V8.29056C58.6997 8.16807 59.5123 8.10547 60.3898 8.10547C61.9405 8.10547 63.1093 8.44435 63.8975 9.12211C64.7805 9.88834 65.2234 10.9839 65.2234 12.4102ZM63.7269 12.4497C63.7269 11.4113 63.4533 10.6151 62.9062 10.0598C62.359 9.50591 61.56 9.22827 60.5077 9.22827C60.0608 9.22827 59.6802 9.25821 59.3646 9.32082V15.9746C59.5393 16.0018 59.859 16.0141 60.3235 16.0141C61.4096 16.0141 62.248 15.7106 62.8385 15.1036C63.4289 14.4966 63.7269 13.612 63.7269 12.4497Z" fill="white"/>
<path d="M73.1591 13.8108C73.1591 14.7975 72.8788 15.6059 72.3181 16.2401C71.7303 16.892 70.9516 17.2173 69.9792 17.2173C69.042 17.2173 68.2958 16.9056 67.7392 16.2796C67.1839 15.6549 66.9062 14.8669 66.9062 13.9169C66.9062 12.9234 67.192 12.1082 67.7662 11.4753C68.3405 10.8425 69.1124 10.5254 70.0848 10.5254C71.022 10.5254 71.775 10.8371 72.3452 11.4617C72.8869 12.0687 73.1591 12.8527 73.1591 13.8108ZM71.687 13.857C71.687 13.265 71.5597 12.7574 71.3064 12.3341C71.0085 11.8224 70.5846 11.5665 70.0334 11.5665C69.4632 11.5665 69.0298 11.8224 68.7319 12.3341C68.4773 12.7574 68.3513 13.2732 68.3513 13.8829C68.3513 14.4749 68.4786 14.9826 68.7319 15.4058C69.0393 15.9176 69.4673 16.1734 70.0198 16.1734C70.5615 16.1734 70.9868 15.9135 71.2929 15.3922C71.5556 14.9608 71.687 14.4491 71.687 13.857Z" fill="white"/>
<path d="M83.7968 10.6562L81.7992 17.0719H80.4991L79.6716 14.286C79.4617 13.5905 79.291 12.8991 79.1583 12.2132H79.1326C79.0093 12.9182 78.8387 13.6082 78.6193 14.286L77.7403 17.0719H76.4253L74.5469 10.6562H76.0055L76.7273 13.7062C76.902 14.4275 77.0456 15.1148 77.1607 15.7653H77.1864C77.2921 15.2291 77.4668 14.5459 77.7133 13.7198L78.6193 10.6576H79.7759L80.644 13.6545C80.8539 14.3853 81.0246 15.0889 81.1559 15.7667H81.1952C81.2914 15.1066 81.4363 14.403 81.6286 13.6545L82.4032 10.6576H83.7968V10.6562Z" fill="white"/>
<path d="M91.1546 17.0738H89.7353V13.3992C89.7353 12.2668 89.3073 11.7007 88.4487 11.7007C88.0275 11.7007 87.6876 11.8558 87.4235 12.1675C87.1621 12.4792 87.0294 12.8466 87.0294 13.2672V17.0724H85.6101V12.4914C85.6101 11.928 85.5925 11.3169 85.5586 10.6555H86.8059L86.8723 11.6585H86.9116C87.0768 11.3468 87.3233 11.0896 87.6469 10.8841C88.0316 10.6446 88.4622 10.5234 88.9335 10.5234C89.5294 10.5234 90.0251 10.7167 90.4192 11.1046C90.9095 11.5796 91.1546 12.2886 91.1546 13.2304V17.0738Z" fill="white"/>
<path d="M95.0703 17.0723H93.6523V7.71289H95.0703V17.0723Z" fill="white"/>
<path d="M103.425 13.8108C103.425 14.7975 103.144 15.6059 102.584 16.2401C101.996 16.892 101.216 17.2173 100.245 17.2173C99.3063 17.2173 98.56 16.9056 98.0048 16.2796C97.4495 15.6549 97.1719 14.8669 97.1719 13.9169C97.1719 12.9234 97.4576 12.1082 98.0319 11.4753C98.6061 10.8425 99.3781 10.5254 100.349 10.5254C101.288 10.5254 102.039 10.8371 102.611 11.4617C103.153 12.0687 103.425 12.8527 103.425 13.8108ZM101.951 13.857C101.951 13.265 101.824 12.7574 101.571 12.3341C101.274 11.8224 100.849 11.5665 100.299 11.5665C99.7275 11.5665 99.2941 11.8224 98.9975 12.3341C98.7429 12.7574 98.6169 13.2732 98.6169 13.8829C98.6169 14.4749 98.7442 14.9826 98.9975 15.4058C99.3049 15.9176 99.7329 16.1734 100.285 16.1734C100.827 16.1734 101.251 15.9135 101.557 15.3922C101.821 14.9608 101.951 14.4491 101.951 13.857Z" fill="white"/>
<path d="M110.296 17.0717H109.021L108.916 16.3327H108.877C108.44 16.922 107.819 17.2173 107.012 17.2173C106.409 17.2173 105.921 17.0227 105.554 16.6362C105.221 16.285 105.055 15.8482 105.055 15.3296C105.055 14.5457 105.38 13.9482 106.034 13.5345C106.687 13.1208 107.605 12.918 108.787 12.9275V12.8077C108.787 11.9626 108.346 11.5407 107.461 11.5407C106.832 11.5407 106.276 11.6999 105.797 12.0157L105.508 11.0793C106.102 10.7105 106.834 10.5254 107.698 10.5254C109.367 10.5254 110.204 11.41 110.204 13.1793V15.5419C110.204 16.1829 110.235 16.6933 110.296 17.0717ZM108.822 14.8669V13.8775C107.257 13.8502 106.474 14.2817 106.474 15.1704C106.474 15.5052 106.563 15.7556 106.746 15.923C106.929 16.0904 107.162 16.1734 107.44 16.1734C107.751 16.1734 108.042 16.0741 108.308 15.8767C108.575 15.678 108.738 15.4262 108.799 15.1173C108.814 15.0479 108.822 14.9635 108.822 14.8669Z" fill="white"/>
<path d="M118.36 17.0723H117.101L117.034 16.042H116.995C116.593 16.826 115.907 17.2179 114.944 17.2179C114.175 17.2179 113.535 16.9144 113.027 16.3074C112.519 15.7004 112.266 14.9124 112.266 13.9448C112.266 12.9064 112.541 12.0653 113.093 11.4229C113.628 10.8241 114.284 10.5247 115.064 10.5247C115.921 10.5247 116.521 10.8145 116.862 11.3957H116.889V7.71289H118.31V15.3439C118.31 15.9685 118.326 16.5442 118.36 17.0723ZM116.889 14.3667V13.297C116.889 13.1119 116.876 12.9622 116.85 12.8478C116.77 12.5049 116.598 12.2163 116.337 11.9836C116.073 11.7509 115.754 11.6338 115.387 11.6338C114.858 11.6338 114.443 11.8448 114.139 12.2681C113.837 12.6913 113.684 13.2316 113.684 13.8917C113.684 14.5259 113.828 15.0404 114.12 15.4364C114.427 15.8583 114.842 16.0693 115.36 16.0693C115.826 16.0693 116.199 15.8937 116.482 15.5412C116.755 15.2159 116.889 14.824 116.889 14.3667Z" fill="white"/>
<path d="M130.499 13.8108C130.499 14.7975 130.219 15.6059 129.658 16.2401C129.07 16.892 128.293 17.2173 127.319 17.2173C126.383 17.2173 125.637 16.9056 125.079 16.2796C124.524 15.6549 124.246 14.8669 124.246 13.9169C124.246 12.9234 124.532 12.1082 125.106 11.4753C125.68 10.8425 126.452 10.5254 127.426 10.5254C128.362 10.5254 129.116 10.8371 129.685 11.4617C130.227 12.0687 130.499 12.8527 130.499 13.8108ZM129.028 13.857C129.028 13.265 128.901 12.7574 128.648 12.3341C128.348 11.8224 127.926 11.5665 127.373 11.5665C126.804 11.5665 126.371 11.8224 126.072 12.3341C125.817 12.7574 125.691 13.2732 125.691 13.8829C125.691 14.4749 125.818 14.9826 126.072 15.4058C126.379 15.9176 126.807 16.1734 127.36 16.1734C127.901 16.1734 128.328 15.9135 128.634 15.3922C128.895 14.9608 129.028 14.4491 129.028 13.857Z" fill="white"/>
<path d="M138.13 17.0738H136.712V13.3992C136.712 12.2668 136.284 11.7007 135.424 11.7007C135.003 11.7007 134.663 11.8558 134.4 12.1675C134.137 12.4792 134.006 12.8466 134.006 13.2672V17.0724H132.585V12.4914C132.585 11.928 132.569 11.3169 132.535 10.6555H133.781L133.847 11.6585H133.887C134.053 11.3468 134.3 11.0896 134.622 10.8841C135.008 10.6446 135.437 10.5234 135.91 10.5234C136.505 10.5234 137 10.7167 137.394 11.1046C137.886 11.5796 138.13 12.2886 138.13 13.2304V17.0738Z" fill="white"/>
<path d="M147.681 11.7228H146.118V14.8394C146.118 15.6315 146.396 16.0275 146.946 16.0275C147.2 16.0275 147.412 16.0058 147.578 15.9608L147.615 17.0428C147.334 17.149 146.966 17.2021 146.512 17.2021C145.952 17.2021 145.516 17.0306 145.2 16.6876C144.883 16.3446 144.726 15.7676 144.726 14.9578V11.7228H143.793V10.6544H144.726V9.47854L146.117 9.05664V10.6531H147.68L147.681 11.7228Z" fill="white"/>
<path d="M155.197 17.0723H153.776V13.4249C153.776 12.2749 153.348 11.6992 152.491 11.6992C151.833 11.6992 151.383 12.0326 151.137 12.6995C151.095 12.8397 151.07 13.0112 151.07 13.2126V17.0709H149.652V7.71289H151.07V11.5794H151.097C151.544 10.8758 152.185 10.5247 153.015 10.5247C153.603 10.5247 154.089 10.7179 154.475 11.1058C154.956 11.5889 155.197 12.3075 155.197 13.2575V17.0723Z" fill="white"/>
<path d="M162.945 13.5628C162.945 13.8187 162.927 14.0337 162.893 14.2093H158.636C158.655 14.8435 158.858 15.3267 159.252 15.6615C159.613 15.9609 160.077 16.1106 160.646 16.1106C161.276 16.1106 161.85 16.0099 162.367 15.8071L162.589 16.7979C161.984 17.0619 161.272 17.1939 160.447 17.1939C159.458 17.1939 158.679 16.9013 158.116 16.3161C157.55 15.7309 157.27 14.9456 157.27 13.9602C157.27 12.9926 157.531 12.1869 158.058 11.5445C158.608 10.8586 159.351 10.5156 160.29 10.5156C161.208 10.5156 161.905 10.8586 162.377 11.5445C162.757 12.0889 162.945 12.7626 162.945 13.5628ZM161.591 13.194C161.602 12.7708 161.509 12.406 161.316 12.0984C161.07 11.7024 160.695 11.5037 160.187 11.5037C159.724 11.5037 159.346 11.6969 159.057 12.0848C158.822 12.3938 158.682 12.7626 158.636 13.194H161.591Z" fill="white"/>
</svg>
