<svg width="56" height="56" viewBox="0 0 56 56" fill="none" xmlns="http://www.w3.org/2000/svg">
<circle cx="28" cy="28" r="28" fill="#100F0D"/>
<path d="M42 28C42 20.268 35.732 14 28 14C20.268 14 14 20.268 14 28C14 34.9877 19.1196 40.7797 25.8125 41.8299V32.0469H22.2578V28H25.8125V24.9156C25.8125 21.4069 27.9027 19.4688 31.1005 19.4688C32.6318 19.4688 34.2344 19.7422 34.2344 19.7422V23.1875H32.469C30.73 23.1875 30.1875 24.2668 30.1875 25.375V28H34.0703L33.4496 32.0469H30.1875V41.8299C36.8804 40.7797 42 34.9877 42 28Z" fill="white"/>
</svg>
