<svg width="177" height="52" viewBox="0 0 177 52" fill="none" xmlns="http://www.w3.org/2000/svg">
<g clip-path="url(#clip0_1065_1824)">
<path d="M170.06 52.001H6.54462C2.9472 52.001 0.00390625 49.0761 0.00390625 45.5011V6.50183C0.00390625 2.92687 2.9472 0.00195312 6.54462 0.00195312H170.06C173.658 0.00195312 176.601 2.92687 176.601 6.50183V45.5011C176.601 49.0761 173.658 52.001 170.06 52.001Z" fill="#100F0D"/>
<path d="M139.89 39.0008H142.331V22.7484H139.89V39.0008ZM161.876 28.6033L159.078 35.6491H158.995L156.091 28.6033H153.461L157.817 38.4509L155.333 43.9289H157.879L164.591 28.6038L161.876 28.6033ZM148.033 37.1547C147.235 37.1547 146.119 36.757 146.119 35.7745C146.119 34.5201 147.508 34.0392 148.706 34.0392C149.779 34.0392 150.285 34.2688 150.937 34.5826C150.747 36.0882 149.443 37.1547 148.033 37.1547ZM148.328 28.2478C146.561 28.2478 144.731 29.0217 143.974 30.7361L146.14 31.6349C146.603 30.7361 147.465 30.4437 148.37 30.4437C149.633 30.4437 150.916 31.1957 150.937 32.5343V32.7013C150.495 32.4504 149.548 32.0742 148.391 32.0742C146.055 32.0742 143.678 33.3492 143.678 35.7328C143.678 37.9073 145.593 39.3083 147.738 39.3083C149.379 39.3083 150.285 38.5765 150.852 37.7189H150.937V38.9741H153.294V32.7429C153.294 29.8575 151.125 28.2478 148.328 28.2478ZM133.242 30.5817H129.771V25.0112H133.242C135.067 25.0112 136.103 26.5123 136.103 27.7964C136.103 29.0558 135.067 30.5817 133.242 30.5817ZM133.18 22.7488H127.331V39.0011H129.771V32.8441H133.18C135.885 32.8441 138.545 30.8982 138.545 27.797C138.545 24.6963 135.885 22.7488 133.18 22.7488ZM101.286 37.1574C99.5997 37.1574 98.1883 35.7538 98.1883 33.8278C98.1883 31.8793 99.5997 30.4559 101.286 30.4559C102.951 30.4559 104.257 31.8794 104.257 33.8278C104.257 35.7538 102.951 37.1574 101.286 37.1574ZM104.089 29.5131H104.004C103.457 28.864 102.402 28.2775 101.075 28.2775C98.2931 28.2775 95.7432 30.7074 95.7432 33.8278C95.7432 36.9269 98.2931 39.3354 101.075 39.3354C102.402 39.3354 103.457 38.7488 104.004 38.0791H104.089V38.8743C104.089 40.9903 102.951 42.1207 101.117 42.1207C99.6216 42.1207 98.6943 41.0527 98.3146 40.1523L96.1864 41.0318C96.797 42.4973 98.4194 44.2991 101.117 44.2991C103.984 44.2991 106.408 42.6232 106.408 38.539V28.6125H104.089L104.089 29.5131ZM108.094 39.0003H110.538V22.7479H108.094V39.0003ZM114.142 33.6389C114.079 31.5026 115.807 30.4138 117.05 30.4138C118.02 30.4138 118.841 30.8957 119.116 31.5863L114.142 33.6389ZM121.728 31.7956C121.265 30.5606 119.853 28.2775 116.966 28.2775C114.099 28.2775 111.718 30.5184 111.718 33.8065C111.718 36.9062 114.079 39.3355 117.239 39.3355C119.789 39.3355 121.265 37.7862 121.877 36.8853L119.98 35.6285C119.347 36.5502 118.484 37.1575 117.239 37.1575C115.997 37.1575 115.111 36.5919 114.543 35.4819L121.981 32.4243L121.728 31.7956ZM62.4592 29.9741V32.3196H68.1071C67.9385 33.639 67.4959 34.6022 66.8214 35.2725C65.9992 36.089 64.7136 36.9899 62.4591 36.9899C58.9817 36.9899 56.2632 34.2046 56.2632 30.749C56.2632 27.2934 58.9817 24.5077 62.4591 24.5077C64.3348 24.5077 65.7044 25.2409 66.716 26.1833L68.3814 24.5284C66.969 23.1883 65.0936 22.1621 62.4591 22.1621C57.6955 22.1621 53.6914 26.0157 53.6914 30.749C53.6914 35.4818 57.6955 39.3355 62.4591 39.3355C65.0299 39.3355 66.9691 38.4976 68.4862 36.927C70.0458 35.3771 70.5307 33.1992 70.5307 31.4397C70.5307 30.8958 70.4882 30.3931 70.4039 29.9741H62.4592ZM76.9525 37.1574C75.2661 37.1574 73.8119 35.7751 73.8119 33.8065C73.8119 31.8169 75.2661 30.456 76.9525 30.456C78.6382 30.456 80.0924 31.8169 80.0924 33.8065C80.0924 35.7751 78.6382 37.1574 76.9525 37.1574ZM76.9525 28.2775C73.8747 28.2775 71.3672 30.6022 71.3672 33.8065C71.3672 36.9899 73.8747 39.3355 76.9525 39.3355C80.0291 39.3355 82.5371 36.9899 82.5371 33.8065C82.5371 30.6022 80.0291 28.2775 76.9525 28.2775ZM89.1352 37.1574C87.45 37.1574 85.9953 35.7751 85.9953 33.8065C85.9953 31.8169 87.4501 30.456 89.1352 30.456C90.8216 30.456 92.2753 31.8169 92.2753 33.8065C92.2753 35.7751 90.8216 37.1574 89.1352 37.1574ZM89.1352 28.2775C86.0586 28.2775 83.5511 30.6022 83.5511 33.8065C83.5511 36.9899 86.0586 39.3355 89.1352 39.3355C92.213 39.3355 94.7205 36.9899 94.7205 33.8065C94.7205 30.6022 92.213 28.2775 89.1352 28.2775Z" fill="white"/>
<path d="M27.102 25.2502L13.1758 39.9396C13.1763 39.9426 13.1774 39.9452 13.1778 39.9483C13.6049 41.5434 15.071 42.7179 16.811 42.7179C17.5065 42.7179 18.1595 42.531 18.7196 42.203L18.764 42.1771L34.4406 33.1875L27.102 25.2502Z" fill="#EB3131"/>
<path d="M41.1916 22.7499L41.1783 22.7408L34.4102 18.8418L26.7852 25.5845L34.4367 33.1874L41.169 29.3271C42.3493 28.6939 43.1506 27.4573 43.1506 26.0314C43.1506 24.6157 42.3602 23.3852 41.1916 22.7499Z" fill="#F6B60B"/>
<path d="M13.1746 12.0605C13.0909 12.3673 13.0469 12.6887 13.0469 13.0224V38.98C13.0469 39.3131 13.0904 39.6355 13.1751 39.9412L27.5821 25.6272L13.1746 12.0605Z" fill="#5778C5"/>
<path d="M27.2021 26.0031L34.4108 18.8416L18.7519 9.81945C18.1827 9.48067 17.5184 9.28516 16.8076 9.28516C15.0677 9.28516 13.5996 10.4618 13.1724 12.0588C13.1719 12.0603 13.1719 12.0614 13.1719 12.0628L27.2021 26.0031Z" fill="#3BAD49"/>
<path d="M61.9999 12.7149H58.1838V13.6533H61.0434C60.9657 14.4191 60.6591 15.0204 60.1419 15.4571C59.6248 15.8939 58.9646 16.1132 58.1838 16.1132C57.3274 16.1132 56.6017 15.8167 56.0071 15.2276C55.4244 14.6264 55.1281 13.8829 55.1281 12.9872C55.1281 12.0915 55.4244 11.348 56.0071 10.7468C56.6017 10.1578 57.3274 9.86322 58.1838 9.86322C58.6233 9.86322 59.0423 9.93836 59.4265 10.1029C59.8108 10.2674 60.1194 10.497 60.3607 10.7915L61.0863 10.0704C60.7571 9.69865 60.3402 9.41434 59.823 9.20713C59.3059 8.99991 58.7663 8.90046 58.1837 8.90046C57.0412 8.90046 56.0724 9.29448 55.2813 10.0806C54.4903 10.8687 54.0938 11.8396 54.0938 12.9872C54.0938 14.1348 54.4902 15.1078 55.2813 15.894C56.0723 16.6799 57.0412 17.0741 58.1837 17.0741C59.3835 17.0741 60.3401 16.6922 61.076 15.9162C61.7239 15.2704 62.055 14.397 62.055 13.3042C62.055 13.1193 62.0326 12.9221 61.9999 12.7149ZM63.4783 9.07498V16.8993H68.0751V15.9385H64.49V13.4564H67.7236V12.518H64.49V10.0378H68.0751V9.07495L63.4783 9.07498ZM74.5209 10.0379V9.07498H69.1105V10.0379H71.3099V16.8993H72.3216V10.0379H74.5209ZM79.4192 9.07498H78.4075V16.8993H79.4192V9.07498ZM86.0974 10.0379V9.07498H80.687V10.0379H82.8862V16.8993H83.898V10.0379H86.0974ZM96.307 10.0927C95.5262 9.29442 94.5697 8.90039 93.427 8.90039C92.2824 8.90039 91.3259 9.29441 90.5451 10.0805C89.7642 10.8565 89.3801 11.8294 89.3801 12.9871C89.3801 14.1449 89.7643 15.1179 90.5451 15.8939C91.3259 16.6799 92.2824 17.0741 93.427 17.0741C94.5594 17.0741 95.5262 16.6799 96.307 15.8939C97.0879 15.118 97.472 14.1449 97.472 12.9871C97.472 11.8395 97.0878 10.8685 96.307 10.0927ZM91.2707 10.7467C91.8532 10.1577 92.5686 9.86315 93.427 9.86315C94.2835 9.86315 94.9989 10.1577 95.5712 10.7467C96.1537 11.3256 96.4398 12.0811 96.4398 12.9871C96.4398 13.8951 96.1537 14.6486 95.5712 15.2276C94.9989 15.8166 94.2835 16.1131 93.427 16.1131C92.5686 16.1131 91.8532 15.8166 91.2707 15.2276C90.7004 14.6365 90.4143 13.8951 90.4143 12.9871C90.4143 12.0812 90.7004 11.3378 91.2707 10.7467ZM99.8758 12.0264L99.8329 10.5171H99.8758L103.878 16.8992H104.935V9.0749H103.923V13.6532L103.966 15.1625H103.923L100.097 9.0749H98.8641V16.8992H99.8758V12.0264Z" fill="white" stroke="white" stroke-width="0.26666" stroke-miterlimit="10"/>
</g>
<defs>
<clipPath id="clip0_1065_1824">
<rect width="176.604" height="52" fill="white"/>
</clipPath>
</defs>
</svg>
