<svg width="56" height="56" viewBox="0 0 56 56" fill="none" xmlns="http://www.w3.org/2000/svg">
<circle cx="28" cy="28" r="28" fill="#100F0D"/>
<path d="M23.4376 36.9993H19.3297V23.6336H23.4376V36.9993ZM21.3837 21.8125C20.0648 21.8125 19 20.7352 19 19.4062C19 18.0773 20.0648 17 21.3837 17C22.6971 17 23.7619 18.0773 23.7619 19.4062C23.7619 20.7297 22.6971 21.8125 21.3837 21.8125ZM38.8099 36.9993H34.7073V30.5023C34.7073 28.9546 34.6803 26.9586 32.5724 26.9586C30.4373 26.9586 30.113 28.6484 30.113 30.393V36.9993H26.0159V23.6336H29.9508V25.4601H30.0049C30.5509 24.4102 31.8913 23.3 33.8859 23.3C38.0423 23.3 38.8099 26.0673 38.8099 29.6656V36.9993Z" fill="white"/>
</svg>
