<svg width="1813" height="389" viewBox="0 0 1813 389" fill="none" xmlns="http://www.w3.org/2000/svg">
<mask id="mask0_200_69" style="mask-type:alpha" maskUnits="userSpaceOnUse" x="0" y="0" width="1813" height="389">
<path d="M0.609375 258.126H63.2005C64.2351 302.613 92.1683 330.547 135.103 330.547C175.451 330.547 195.625 304.682 195.625 279.852C195.625 255.023 177.52 237.435 148.035 229.676L98.3757 216.743C40.4401 201.742 11.4723 163.98 11.4723 115.872C11.4723 55.3497 59.5795 10.3458 129.93 10.3458C204.936 10.3458 248.387 66.7301 248.387 127.253H187.348C186.831 94.1463 163.553 68.7992 129.93 68.7992C94.2374 68.7992 74.0634 93.1117 74.0634 115.355C74.0634 132.943 83.8918 150.531 115.446 159.324L164.588 172.257C225.11 188.81 259.25 222.951 259.25 278.818C259.25 341.927 209.074 389 135.103 389C61.1314 389 2.16122 338.823 0.609375 258.126Z" fill="black"/>
<path d="M337.954 270.024C342.61 305.717 364.335 334.168 406.753 334.168C438.307 334.168 455.894 314.511 461.067 299.509H523.658C520.037 323.822 490.552 389 406.753 389C329.678 389 273.811 330.547 273.811 252.436C273.811 175.878 330.712 115.872 404.166 115.872C474.516 115.872 528.314 176.912 528.314 250.884C528.314 257.609 527.797 264.851 527.279 270.024H337.954ZM404.166 170.705C367.956 170.705 346.231 194.5 340.023 227.089H465.723C460.033 195.017 439.341 170.705 404.166 170.705Z" fill="black"/>
<path d="M745.144 118.976L622.031 311.407L623.583 385.896H562.026V118.976H621.513V150.013C621.513 175.878 620.479 191.396 618.41 220.364H618.927C631.342 194.5 640.136 178.981 655.654 154.152L677.897 118.976H745.144Z" fill="black"/>
<path d="M915.216 118.976H982.463L819.519 385.896H756.411V118.976H817.967V199.673C817.967 227.089 816.933 250.884 813.829 291.75H814.346C832.451 259.161 844.866 235.883 864.006 203.294L915.216 118.976Z" fill="black"/>
<path d="M1012.11 85.3524C988.828 85.3524 969.689 66.73 969.689 42.9348C969.689 19.1396 988.828 0 1012.11 0C1036.94 0 1056.07 19.1396 1056.07 42.9348C1056.07 66.73 1035.9 85.3524 1012.11 85.3524ZM1043.14 385.896H981.586V118.976H1043.14V385.896Z" fill="black"/>
<path d="M1261.89 214.674C1255.17 190.362 1230.86 173.809 1204.47 173.809C1161.54 173.809 1134.64 211.053 1134.64 252.436C1134.64 293.819 1162.57 331.064 1204.47 331.064C1232.92 331.064 1256.72 312.441 1262.41 290.198H1323.97C1321.38 326.926 1276.89 389 1204.47 389C1131.02 389 1072.57 327.96 1072.57 252.436C1072.57 176.912 1131.02 115.872 1204.47 115.872C1283.1 115.872 1321.9 176.395 1325 214.674H1261.89Z" fill="black"/>
<path d="M1403.84 270.024C1408.49 305.717 1430.22 334.168 1472.64 334.168C1504.19 334.168 1521.78 314.511 1526.95 299.509H1589.54C1585.92 323.822 1556.44 389 1472.64 389C1395.56 389 1339.69 330.547 1339.69 252.436C1339.69 175.878 1396.6 115.872 1470.05 115.872C1540.4 115.872 1594.2 176.912 1594.2 250.884C1594.2 257.609 1593.68 264.851 1593.16 270.024H1403.84ZM1470.05 170.705C1433.84 170.705 1412.11 194.5 1405.91 227.089H1531.61C1525.92 195.017 1505.23 170.705 1470.05 170.705Z" fill="black"/>
<path d="M1670.84 296.923C1671.88 319.684 1689.47 335.719 1714.3 335.719C1736.02 335.719 1752.06 324.339 1752.06 307.269C1752.06 291.233 1740.16 283.991 1715.33 278.301L1683.78 270.541C1639.29 259.678 1615.5 234.331 1615.5 193.983C1615.5 148.461 1655.84 115.872 1712.74 115.872C1769.65 115.872 1805.34 160.876 1805.34 202.259H1749.47C1748.44 181.051 1732.92 166.049 1711.71 166.049C1690.5 166.049 1676.53 177.43 1676.53 193.465C1676.53 206.398 1684.81 213.64 1700.85 217.261L1735.5 225.537C1787.75 237.435 1813.61 266.403 1812.58 304.165C1811.54 355.894 1770.68 389 1711.71 389C1643.95 389 1609.8 339.858 1608.77 296.923H1670.84Z" fill="black"/>
</mask>
<g mask="url(#mask0_200_69)">
<rect x="-17.3906" y="-31" width="1832" height="449" fill="#38D091"/>
</g>
</svg>
