<svg width="1812" height="389" viewBox="0 0 1812 389" fill="none" xmlns="http://www.w3.org/2000/svg">
<mask id="mask0_211_149" style="mask-type:alpha" maskUnits="userSpaceOnUse" x="0" y="0" width="1812" height="389">
<path d="M0 258.126H62.5911C63.6257 302.613 91.5589 330.547 134.493 330.547C174.841 330.547 195.015 304.682 195.015 279.852C195.015 255.023 176.91 237.435 147.425 229.676L97.7663 216.743C39.8307 201.742 10.8629 163.98 10.8629 115.872C10.8629 55.3497 58.9701 10.3458 129.32 10.3458C204.326 10.3458 247.778 66.7301 247.778 127.253H186.739C186.222 94.1463 162.944 68.7992 129.32 68.7992C93.628 68.7992 73.454 93.1117 73.454 115.355C73.454 132.943 83.2824 150.531 114.837 159.324L163.978 172.257C224.5 188.81 258.641 222.951 258.641 278.818C258.641 341.927 208.465 389 134.493 389C60.522 389 1.55185 338.823 0 258.126Z" fill="black"/>
<path d="M337.345 270.024C342 305.717 363.726 334.168 406.143 334.168C437.697 334.168 455.285 314.511 460.458 299.509H523.049C519.428 323.822 489.943 389 406.143 389C329.068 389 273.202 330.547 273.202 252.436C273.202 175.878 330.103 115.872 403.557 115.872C473.907 115.872 527.704 176.912 527.704 250.884C527.704 257.609 527.187 264.851 526.67 270.024H337.345ZM403.557 170.705C367.347 170.705 345.621 194.5 339.414 227.089H465.113C459.423 195.017 438.732 170.705 403.557 170.705Z" fill="black"/>
<path d="M744.535 118.976L621.421 311.407L622.973 385.896H561.417V118.976H620.904V150.013C620.904 175.878 619.869 191.396 617.8 220.364H618.318C630.732 194.5 639.526 178.981 655.045 154.152L677.288 118.976H744.535Z" fill="black"/>
<path d="M914.607 118.976H981.854L818.91 385.896H755.802V118.976H817.358V199.673C817.358 227.089 816.324 250.884 813.22 291.75H813.737C831.842 259.161 844.257 235.883 863.396 203.294L914.607 118.976Z" fill="black"/>
<path d="M1011.5 85.3524C988.219 85.3524 969.079 66.7301 969.079 42.9348C969.079 19.1396 988.219 0 1011.5 0C1036.33 0 1055.47 19.1396 1055.47 42.9348C1055.47 66.7301 1035.29 85.3524 1011.5 85.3524ZM1042.53 385.896H980.977V118.976H1042.53V385.896Z" fill="black"/>
<path d="M1261.28 214.674C1254.56 190.362 1230.25 173.809 1203.86 173.809C1160.93 173.809 1134.03 211.053 1134.03 252.436C1134.03 293.819 1161.96 331.064 1203.86 331.064C1232.32 331.064 1256.11 312.441 1261.8 290.198H1323.36C1320.77 326.926 1276.28 389 1203.86 389C1130.41 389 1071.96 327.96 1071.96 252.436C1071.96 176.912 1130.41 115.872 1203.86 115.872C1282.49 115.872 1321.29 176.395 1324.39 214.674H1261.28Z" fill="black"/>
<path d="M1403.23 270.024C1407.88 305.717 1429.61 334.168 1472.03 334.168C1503.58 334.168 1521.17 314.511 1526.34 299.509H1588.93C1585.31 323.822 1555.83 389 1472.03 389C1394.95 389 1339.09 330.547 1339.09 252.436C1339.09 175.878 1395.99 115.872 1469.44 115.872C1539.79 115.872 1593.59 176.912 1593.59 250.884C1593.59 257.609 1593.07 264.851 1592.55 270.024H1403.23ZM1469.44 170.705C1433.23 170.705 1411.5 194.5 1405.3 227.089H1531C1525.31 195.017 1504.62 170.705 1469.44 170.705Z" fill="black"/>
<path d="M1670.23 296.923C1671.27 319.683 1688.86 335.719 1713.69 335.719C1735.41 335.719 1751.45 324.339 1751.45 307.269C1751.45 291.233 1739.55 283.991 1714.72 278.301L1683.17 270.541C1638.68 259.678 1614.89 234.331 1614.89 193.983C1614.89 148.461 1655.23 115.872 1712.13 115.872C1769.04 115.872 1804.73 160.876 1804.73 202.259H1748.86C1747.83 181.051 1732.31 166.049 1711.1 166.049C1689.89 166.049 1675.92 177.43 1675.92 193.465C1675.92 206.398 1684.2 213.64 1700.24 217.261L1734.9 225.537C1787.14 237.435 1813 266.403 1811.97 304.165C1810.94 355.894 1770.07 389 1711.1 389C1643.34 389 1609.2 339.858 1608.16 296.923H1670.23Z" fill="black"/>
</mask>
<g mask="url(#mask0_211_149)">
<rect x="-18" y="-31" width="1832" height="449" fill="#D8D8D8"/>
</g>
</svg>
